#!OML:ASF F:\VICON\USERDATA\INSTALL\rory3\rory3.ASF
:FULLY-SPECIFIED
:DEGREES
757
root 2.36581 33.7139 -5.24478 -170.519 -15.8253 177.842
lowerback 1.64595 -1.8173 -2.78008
upperback -1.27129 -2.47932 2.03605
thorax -2.02164 -1.19223 3.73503
lowerneck -20.0003 0.109696 -14.4668
upperneck 36.0974 2.64352 0.769218
head 16.1321 -1.80355 3.05029
rclavicle -2.79292e-014 2.38542e-015
rhumerus -24.0754 31.9224 -93.5079
rradius 93.0147
rwrist 58.9124
rhand 32.7781 -18.6116
rfingers 7.12502
rthumb 56.1858 -35.8563
lclavicle -2.79292e-014 2.38542e-015
lhumerus -15.0904 -29.7498 90.8762
lradius 81.0998
lwrist -36.002
lhand -31.3634 36.134
lfingers 7.12502
lthumb -4.63401 66.0633
rfemur -16.2814 1.4726 22.3451
rtibia 30.7985
rfoot -15.5639 -2.99916
rtoes 12.3061
lfemur -16.6991 3.69412 -24.5699
ltibia 27.7943
lfoot -8.58148 8.57585
ltoes -17.7595
758
root 2.36085 33.7131 -5.23954 -170.62 -15.6779 177.898
lowerback 1.84834 -1.8234 -2.58769
upperback -1.35065 -2.48735 1.92806
thorax -2.22891 -1.19422 3.52538
lowerneck -19.9055 0.240203 -14.4164
upperneck 36.2338 2.73849 0.854256
head 16.162 -1.76713 3.09442
rclavicle 2.85256e-014 -7.15625e-015
rhumerus -24.0758 32.027 -93.8261
rradius 92.8184
rwrist 58.8243
rhand 32.3857 -18.5828
rfingers 7.12502
rthumb 55.838 -36.0974
lclavicle 2.85256e-014 -7.15625e-015
lhumerus -15.3919 -29.2843 90.8782
lradius 80.9936
lwrist -36.3481
lhand -32.0704 35.8385
lfingers 7.12502
lthumb -5.31671 65.7518
rfemur -16.2067 1.46221 22.3802
rtibia 30.7791
rfoot -15.4967 -2.90992
rtoes 12.5622
lfemur -16.614 3.69263 -24.526
ltibia 27.8228
lfoot -8.60865 8.67174
ltoes -17.3513
759
root 2.35499 33.711 -5.23537 -170.612 -15.5718 177.929
lowerback 1.81251 -1.7847 -2.65315
upperback -1.37304 -2.43719 1.99484
thorax -2.23046 -1.168 3.62895
lowerneck -19.8277 0.280197 -14.4818
upperneck 36.3154 2.79117 0.82215
head 16.1804 -1.7755 3.09804
rclavicle -1.49089e-015 4.77083e-015
rhumerus -23.5002 32.3057 -93.5957
rradius 92.291
rwrist 58.5484
rhand 32.0332 -18.6837
rfingers 7.12502
rthumb 55.525 -36.4356
lclavicle -1.49089e-015 4.77083e-015
lhumerus -15.474 -28.7949 91.1311
lradius 80.8372
lwrist -36.7212
lhand -32.8502 35.2461
lfingers 7.12502
lthumb -6.06955 65.1392
rfemur -16.2115 1.39499 22.3883
rtibia 30.784
rfoot -15.5282 -2.75979
rtoes 12.924
lfemur -16.6632 3.80001 -24.5483
ltibia 27.8338
lfoot -8.529 8.68507
ltoes -18.3192
760
root 2.34847 33.7078 -5.23283 -170.547 -15.4822 177.973
lowerback 1.76986 -1.73924 -2.52448
upperback -1.4552 -2.37394 1.94249
thorax -2.30341 -1.13673 3.50092
lowerneck -19.7112 0.331547 -14.3947
upperneck 36.4287 2.78244 0.818957
head 16.2095 -1.78587 3.07798
rclavicle 5.73494e-014 2.78299e-014
rhumerus -24.6679 31.519 -94.0839
rradius 93.1003
rwrist 59.0415
rhand 31.5273 -18.0809
rfingers 7.12502
rthumb 55.0746 -36.1655
lclavicle 5.73494e-014 2.78299e-014
lhumerus -15.6166 -28.3541 91.3173
lradius 80.6263
lwrist -37.1466
lhand -33.6088 34.33
lfingers 7.12502
lthumb -6.80196 64.2008
rfemur -16.2551 1.29324 22.4148
rtibia 30.8022
rfoot -15.5458 -2.53736
rtoes 13.4827
lfemur -16.7748 3.89504 -24.5634
ltibia 27.8417
lfoot -8.47921 8.676
ltoes -19.351
761
root 2.34324 33.7076 -5.23104 -170.519 -15.3851 177.951
lowerback 1.75451 -1.64632 -2.48687
upperback -1.48495 -2.24937 1.87577
thorax -2.33914 -1.07434 3.40706
lowerneck -19.5939 0.330402 -14.245
upperneck 36.5143 2.695 0.76964
head 16.2352 -1.82075 3.01329
rclavicle 2.25621e-014 1.51076e-014
rhumerus -23.8861 31.9361 -93.7144
rradius 92.5623
rwrist 58.4981
rhand 31.3205 -18.4916
rfingers 7.12502
rthumb 54.8901 -36.7095
lclavicle 2.25621e-014 1.51076e-014
lhumerus -15.5936 -28.0757 91.5127
lradius 80.2859
lwrist -37.5476
lhand -34.2263 33.5287
lfingers 7.12502
lthumb -7.39798 63.3793
rfemur -16.2674 1.26575 22.367
rtibia 30.8094
rfoot -15.5843 -2.43472
rtoes 13.7851
lfemur -16.793 3.91608 -24.618
ltibia 27.8474
lfoot -8.45669 8.69551
ltoes -19.8077
762
root 2.33919 33.7065 -5.22798 -170.499 -15.2968 177.89
lowerback 1.74634 -1.59676 -2.52766
upperback -1.46725 -2.18389 1.84744
thorax -2.32093 -1.04134 3.39794
lowerneck -19.5342 0.342669 -14.1971
upperneck 36.5606 2.68301 0.72979
head 16.247 -1.83257 2.98416
rclavicle -1.49089e-014 -7.95139e-016
rhumerus -24.5398 30.9198 -94.0911
rradius 92.9239
rwrist 59.1138
rhand 30.7101 -17.6574
rfingers 7.12502
rthumb 54.3442 -36.26
lclavicle -1.49089e-014 -7.95139e-016
lhumerus -15.3736 -27.7343 91.6355
lradius 79.9503
lwrist -37.8816
lhand -34.8904 32.7616
lfingers 7.12502
lthumb -8.03903 62.5887
rfemur -16.2759 1.26628 22.27
rtibia 30.78
rfoot -15.583 -2.35586
rtoes 14.383
lfemur -16.7927 3.86013 -24.6836
ltibia 27.8728
lfoot -8.56282 8.58756
ltoes -19.8934
763
root 2.3338 33.7096 -5.2237 -170.456 -15.2275 177.919
lowerback 1.71305 -1.59157 -2.47346
upperback -1.47194 -2.17519 1.88754
thorax -2.30812 -1.03829 3.40757
lowerneck -19.4764 0.391487 -14.2418
upperneck 36.5977 2.75699 0.691077
head 16.246 -1.82359 2.98582
rclavicle -6.67916e-014 -1.35174e-014
rhumerus -24.6291 30.7322 -94.1017
rradius 92.9645
rwrist 59.2069
rhand 30.238 -17.3419
rfingers 7.12502
rthumb 53.9208 -36.2334
lclavicle -6.67916e-014 -1.35174e-014
lhumerus -15.303 -27.2912 91.8108
lradius 79.7411
lwrist -38.2335
lhand -35.2441 31.9536
lfingers 7.12502
lthumb -8.38032 61.7673
rfemur -16.3451 1.30091 22.2634
rtibia 30.7586
rfoot -15.5547 -2.31689
rtoes 14.6273
lfemur -16.844 3.80457 -24.6492
ltibia 27.8723
lfoot -8.71015 8.43571
ltoes -19.3737
